<?xml version="1.0" encoding="UTF-8"?>
<svg width="600px" height="300px" viewBox="0 0 600 300" version="1.1" xmlns="http://www.w3.org/2000/svg" xmlns:xlink="http://www.w3.org/1999/xlink">
    <!-- Generator: Sketch 47 (45396) - http://www.bohemiancoding.com/sketch -->
    <title>Artboard</title>
    <desc>Created with Sketch.</desc>
    <defs>
        <polygon id="path-1" points="0 207.51773 384 207.51773 384 1.17988652 0 1.17988652"></polygon>
    </defs>
    <g id="cosign_website" stroke="none" stroke-width="1" fill="none" fill-rule="evenodd">
        <g id="Artboard">
            <g id="logo" transform="translate(108.000000, 46.000000)">
                <polygon id="Fill-1" fill="#231F20" points="53.4392123 46.6888213 51.19872 46.6888213 51.19872 44.861183 57.6174277 44.861183 57.6174277 46.6888213 55.3769354 46.6888213 55.3769354 58.4254312 53.4392123 58.4254312"></polygon>
                <polygon id="Fill-2" fill="#231F20" points="61.3185969 44.8605901 63.2548431 44.8605901 63.2548431 50.6710865 65.6459815 50.6710865 65.6459815 44.8605901 67.5837046 44.8605901 67.5837046 58.4263206 65.6459815 58.4263206 65.6459815 52.3860723 63.2548431 52.3860723 63.2548431 58.4263206 61.3185969 58.4263206"></polygon>
                <polygon id="Fill-3" fill="#231F20" points="72.25344 44.8605901 78.0237785 44.8605901 78.0237785 46.6882284 74.1896862 46.6882284 74.1896862 50.6710865 77.5304862 50.6710865 77.5304862 52.5002071 74.1896862 52.5002071 74.1896862 56.481583 78.0237785 56.481583 78.0237785 58.4263206 72.25344 58.4263206"></polygon>
                <g id="Group-23" transform="translate(0.000000, 0.302383)">
                    <path d="M110.013785,82.9227511 C110.013785,84.5280489 109.711015,86.0621979 109.104,87.5237156 C108.496985,88.9822688 107.661046,90.2599851 106.594708,91.3553823 C105.526892,92.4522617 104.277415,93.328283 102.847754,93.9849284 C101.416615,94.6415738 99.8761846,94.9706376 98.2279385,94.9706376 C96.8189538,94.9706376 95.3907692,94.774978 93.936,94.3866234 C92.4797538,93.9967865 91.1697231,93.328283 90.0073846,92.3781482 C88.8435692,91.4294957 87.8835692,90.176978 87.1332923,88.6176305 C86.3815385,87.0612475 86.0049231,85.0898291 86.0049231,82.7048574 L86.0049231,54.0807511 C86.0049231,52.3791057 86.2958769,50.7945596 86.8777846,49.3345241 C87.4596923,47.8744887 88.2838154,46.6086305 89.3516308,45.5384319 C90.4179692,44.4682333 91.6910769,43.6292688 93.1709538,43.020056 C94.6508308,42.4108433 96.2872615,42.106978 98.0817231,42.106978 C99.7801846,42.106978 101.356062,42.4108433 102.810831,43.020056 C104.267077,43.6292688 105.526892,44.4800915 106.594708,45.5740064 C107.661046,46.6694035 108.496985,47.9841766 109.104,49.5168433 C109.711015,51.0509922 110.013785,52.7200277 110.013785,54.5195028 L110.013785,57.4395738 L102.593723,57.4395738 L102.593723,54.9582546 C102.593723,53.4967369 102.180185,52.2308787 101.356062,51.1606801 C100.530462,50.0904816 99.4153846,49.5539 98.0093538,49.5539 C96.1661538,49.5539 94.9403077,50.1275383 94.3362462,51.2703681 C93.7292308,52.4146801 93.4264615,53.8628574 93.4264615,55.6149 L93.4264615,82.1919922 C93.4264615,83.7009426 93.7528615,84.9668007 94.4086154,85.9895667 C95.0628923,87.0108504 96.2385231,87.5237156 97.9369846,87.5237156 C98.4199385,87.5237156 98.9427692,87.437744 99.4995692,87.267283 C100.057846,87.096822 100.567385,86.816673 101.028185,86.4283184 C101.488985,86.0384816 101.8656,85.5033823 102.156554,84.8215383 C102.447508,84.1396943 102.593723,83.2873894 102.593723,82.2661057 L102.593723,79.710673 L110.013785,79.710673 L110.013785,82.9227511 Z" id="Fill-4" fill="#231F20"></path>
                    <path d="M124.854351,82.2655128 C124.854351,84.0664702 125.352074,85.3945837 126.34752,86.2454064 C127.340012,87.0977113 128.515643,87.5231227 129.875889,87.5231227 C131.231705,87.5231227 132.408812,87.0977113 133.402782,86.2454064 C134.398228,85.3945837 134.894474,84.0664702 134.894474,82.2655128 L134.894474,54.810917 C134.894474,53.0114418 134.398228,51.6848106 133.402782,50.8325057 C132.408812,49.981683 131.231705,49.5533071 129.875889,49.5533071 C128.515643,49.5533071 127.340012,49.981683 126.34752,50.8325057 C125.352074,51.6848106 124.854351,53.0114418 124.854351,54.810917 L124.854351,82.2655128 Z M117.434289,54.810917 C117.434289,52.7194348 117.799089,50.8680801 118.524258,49.2627823 C119.252382,47.6560021 120.209428,46.3308532 121.398351,45.2828887 C122.585797,44.2364064 123.919458,43.4463567 125.400812,42.9097752 C126.880689,42.3746759 128.370905,42.1063851 129.875889,42.1063851 C131.37792,42.1063851 132.869612,42.3746759 134.349489,42.9097752 C135.827889,43.4463567 137.161551,44.2364064 138.351951,45.2828887 C139.539397,46.3308532 140.49792,47.6560021 141.224566,49.2627823 C141.952689,50.8680801 142.316012,52.7194348 142.316012,54.810917 L142.316012,82.2655128 C142.316012,84.4073922 141.952689,86.270605 141.224566,87.8507043 C140.49792,89.4322858 139.539397,90.7485411 138.351951,91.7935411 C137.161551,92.8415057 135.827889,93.6315553 134.349489,94.1666546 C132.869612,94.7017539 131.37792,94.9700447 129.875889,94.9700447 C128.370905,94.9700447 126.880689,94.7017539 125.400812,94.1666546 C123.919458,93.6315553 122.585797,92.8415057 121.398351,91.7935411 C120.209428,90.7485411 119.252382,89.4322858 118.524258,87.8507043 C117.799089,86.270605 117.434289,84.4073922 117.434289,82.2655128 L117.434289,54.810917 Z" id="Fill-6" fill="#231F20"></path>
                    <path d="M174.690462,57.5127979 L167.2704,57.5127979 L167.2704,55.8333865 C167.2704,54.1302589 166.870154,52.656883 166.069662,51.4162234 C165.269169,50.1755638 163.923692,49.5530106 162.030277,49.5530106 C161.012677,49.5530106 160.175262,49.7486702 159.520985,50.1385071 C158.866708,50.528344 158.357169,51.0278688 157.993846,51.6355993 C157.629046,52.2433298 157.373538,52.9488901 157.2288,53.7522801 C157.084062,54.5556702 157.011692,55.396117 157.011692,56.2721383 C157.011692,57.2949043 157.048615,58.1590674 157.120985,58.8631454 C157.193354,59.5701879 157.373538,60.1779184 157.665969,60.6893014 C157.956923,61.2006844 158.382277,61.6512943 158.939077,62.0396489 C159.495877,62.4309681 160.259446,62.8193227 161.231262,63.2076773 L166.9056,65.4725851 C168.553846,66.1055142 169.888985,66.8481312 170.906585,67.6989539 C171.925662,68.5512589 172.712862,69.5488262 173.272615,70.6931383 C173.827938,71.8374504 174.204554,73.1507411 174.399508,74.6359752 C174.592985,76.1212092 174.690462,77.8109965 174.690462,79.7097837 C174.690462,81.900578 174.473354,83.9342518 174.034708,85.8063582 C173.599015,87.6814291 172.882708,89.2882092 171.890215,90.6252163 C170.894769,91.9651879 169.571446,93.0250106 167.924677,93.8017199 C166.274954,94.5799113 164.261908,94.9712305 161.885538,94.9712305 C160.091077,94.9712305 158.417723,94.6540248 156.866954,94.0210957 C155.313231,93.3896489 153.981046,92.5240035 152.864492,91.4286064 C151.747938,90.3346915 150.864738,89.0332589 150.208985,87.5228262 C149.553231,86.0153582 149.226831,84.3833794 149.226831,82.6298546 L149.226831,79.8565284 L156.648369,79.8565284 L156.648369,82.1925851 C156.648369,83.556273 157.048615,84.7850745 157.849108,85.8804716 C158.6496,86.9743865 159.995077,87.5228262 161.885538,87.5228262 C163.146831,87.5228262 164.128985,87.3405071 164.832,86.9743865 C165.535015,86.6097482 166.069662,86.0983652 166.432985,85.4417199 C166.797785,84.7850745 167.026708,83.9698262 167.124185,82.9944929 C167.220185,82.0221241 167.2704,80.9519255 167.2704,79.7824149 C167.2704,78.4202092 167.220185,77.3010957 167.124185,76.4235922 C167.026708,75.5475709 166.819938,74.8420106 166.505354,74.3069113 C166.190769,73.7718121 165.752123,73.3345426 165.1968,72.9921383 C164.637046,72.6526986 163.897108,72.286578 162.976985,71.8982234 L157.665969,69.7074291 C154.465477,68.392656 152.319508,66.6524716 151.226585,64.4853936 C150.136615,62.3197979 149.590154,59.6057624 149.590154,56.3447695 C149.590154,54.3985496 149.857477,52.547195 150.390646,50.7951525 C150.923815,49.0431099 151.712492,47.5356418 152.7552,46.2683014 C153.797908,45.0039255 155.121231,43.9930177 156.720738,43.2385426 C158.321723,42.4840674 160.188554,42.1060887 162.322708,42.1060887 C164.164431,42.1060887 165.8496,42.4470106 167.378215,43.1288546 C168.905354,43.8106986 170.216862,44.7104362 171.306831,45.8310319 C172.399754,46.9516277 173.235692,48.2041454 173.8176,49.5900674 C174.399508,50.9774716 174.690462,52.4019326 174.690462,53.8619681 L174.690462,57.5127979 Z" id="Fill-8" fill="#231F20"></path>
                    <mask id="mask-2" fill="white">
                        <use xlink:href="#path-1"></use>
                    </mask>
                    <g id="Clip-11"></g>
                    <polygon id="Fill-10" fill="#231F20" mask="url(#mask-2)" points="182.256738 94.5317376 189.678277 94.5317376 189.678277 42.5440993 182.256738 42.5440993"></polygon>
                    <path d="M198.262006,54.8110652 C198.262006,52.719583 198.626806,50.8682284 199.351975,49.2629305 C200.080098,47.6561504 201.037145,46.3310014 202.226068,45.2830369 C203.413514,44.2365546 204.747175,43.446505 206.227052,42.9099234 C207.708406,42.3748241 209.198622,42.1065333 210.703606,42.1065333 C212.20416,42.1065333 213.697329,42.3748241 215.177206,42.9099234 C216.655606,43.446505 217.989268,44.2365546 219.179668,45.2830369 C220.367114,46.3310014 221.32416,47.6561504 222.052283,49.2629305 C222.780406,50.8682284 223.143729,52.719583 223.143729,54.8110652 L223.143729,57.4391291 L215.722191,57.4391291 L215.722191,54.8110652 C215.722191,53.0115901 215.224468,51.6849589 214.230498,50.8326539 C213.236529,49.9818312 212.059422,49.5534553 210.703606,49.5534553 C209.34336,49.5534553 208.167729,49.9818312 207.175237,50.8326539 C206.179791,51.6849589 205.682068,53.0115901 205.682068,54.8110652 L205.682068,82.265661 C205.682068,84.0666184 206.179791,85.3947319 207.175237,86.2455546 C208.167729,87.0978596 209.34336,87.5232709 210.703606,87.5232709 C212.059422,87.5232709 213.236529,87.0978596 214.230498,86.2455546 C215.224468,85.3947319 215.722191,84.0666184 215.722191,82.265661 L215.722191,72.4812 L209.829268,72.4812 L209.829268,65.9102993 L223.143729,65.9102993 L223.143729,82.265661 C223.143729,84.4075404 222.780406,86.2707532 222.052283,87.8508525 C221.32416,89.432434 220.367114,90.7486894 219.179668,91.7936894 C217.989268,92.8416539 216.655606,93.6317035 215.177206,94.1668028 C213.697329,94.7019021 212.20416,94.9701929 210.703606,94.9701929 C209.198622,94.9701929 207.708406,94.7019021 206.227052,94.1668028 C204.747175,93.6317035 203.413514,92.8416539 202.226068,91.7936894 C201.037145,90.7486894 200.080098,89.432434 199.351975,87.8508525 C198.626806,86.2707532 198.262006,84.4075404 198.262006,82.265661 L198.262006,54.8110652 Z" id="Fill-12" fill="#231F20" mask="url(#mask-2)"></path>
                    <polygon id="Fill-13" fill="#231F20" mask="url(#mask-2)" points="231.218806 42.5446922 238.347914 42.5446922 249.551852 73.8694936 249.696591 73.8694936 249.696591 42.5446922 257.118129 42.5446922 257.118129 94.5323305 250.135237 94.5323305 238.783606 63.2816426 238.637391 63.2816426 238.637391 94.5323305 231.218806 94.5323305"></polygon>
                    <path d="M195.192074,131.021211 L187.772012,131.021211 L187.772012,129.341799 C187.772012,127.638672 187.371766,126.166778 186.571274,124.924636 C185.770782,123.682494 184.425305,123.062906 182.531889,123.062906 C181.514289,123.062906 180.676874,123.258565 180.022597,123.64692 C179.36832,124.038239 178.858782,124.536282 178.495458,125.144012 C178.130658,125.753225 177.875151,126.457303 177.730412,127.260693 C177.585674,128.064083 177.513305,128.903048 177.513305,129.780551 C177.513305,130.803317 177.550228,131.668962 177.622597,132.371558 C177.694966,133.078601 177.875151,133.686331 178.167582,134.197714 C178.458535,134.709097 178.883889,135.159707 179.440689,135.549544 C179.997489,135.937899 180.761058,136.327735 181.732874,136.71609 L187.407212,138.980998 C189.055458,139.612445 190.390597,140.355062 191.408197,141.207367 C192.427274,142.059672 193.214474,143.058721 193.774228,144.201551 C194.329551,145.345863 194.706166,146.660636 194.90112,148.144388 C195.094597,149.629622 195.192074,151.319409 195.192074,153.219679 C195.192074,155.408991 194.974966,157.442665 194.53632,159.316253 C194.100628,161.191324 193.38432,162.796622 192.391828,164.135111 C191.396382,165.473601 190.073058,166.531941 188.426289,167.310133 C186.776566,168.088324 184.76352,168.479643 182.387151,168.479643 C180.592689,168.479643 178.917858,168.162438 177.368566,167.529509 C175.814843,166.898062 174.482658,166.032416 173.366105,164.938501 C172.249551,163.841622 171.366351,162.541672 170.710597,161.031239 C170.054843,159.523771 169.728443,157.89031 169.728443,156.138267 L169.728443,153.364941 L177.149982,153.364941 L177.149982,155.700998 C177.149982,157.064686 177.550228,158.292005 178.35072,159.388884 C179.151212,160.482799 180.496689,161.031239 182.387151,161.031239 C183.648443,161.031239 184.630597,160.84892 185.333612,160.482799 C186.036628,160.118161 186.571274,159.606778 186.934597,158.950133 C187.29792,158.292005 187.52832,157.478239 187.625797,156.504388 C187.721797,155.530537 187.772012,154.460338 187.772012,153.29231 C187.772012,151.928622 187.721797,150.809509 187.625797,149.933487 C187.52832,149.055984 187.321551,148.351906 187.006966,147.815324 C186.692382,147.280225 186.253735,146.841473 185.698412,146.500551 C185.138658,146.161111 184.39872,145.796473 183.47712,145.406636 L178.167582,143.215842 C174.967089,141.901069 172.82112,140.160884 171.728197,137.993806 C170.638228,135.829693 170.091766,133.114175 170.091766,129.853182 C170.091766,127.90548 170.359089,126.055608 170.892258,124.305048 C171.425428,122.551523 172.214105,121.044055 173.256812,119.776714 C174.29952,118.512338 175.622843,117.50143 177.222351,116.746955 C178.823335,115.99248 180.690166,115.614501 182.82432,115.614501 C184.666043,115.614501 186.351212,115.955423 187.879828,116.637267 C189.406966,117.319111 190.716997,118.218849 191.808443,119.339445 C192.901366,120.46004 193.737305,121.712558 194.319212,123.099962 C194.90112,124.485884 195.192074,125.910345 195.192074,127.371863 L195.192074,131.021211 Z" id="Fill-14" fill="#231F20" mask="url(#mask-2)"></path>
                    <polygon id="Fill-15" fill="#231F20" mask="url(#mask-2)" points="207.414203 123.062757 198.828849 123.062757 198.828849 116.053105 223.419618 116.053105 223.419618 123.062757 214.834265 123.062757 214.834265 168.040743 207.414203 168.040743"></polygon>
                    <path d="M252.520911,156.357347 C252.520911,158.063439 252.203372,159.645021 251.572726,161.103574 C250.943557,162.563609 250.082511,163.841326 248.991065,164.938205 C247.899618,166.03212 246.626511,166.897765 245.170265,167.529212 C243.716972,168.162141 242.163249,168.479347 240.51648,168.479347 C238.866757,168.479347 237.315988,168.162141 235.859742,167.529212 C234.403495,166.897765 233.131865,166.03212 232.038942,164.938205 C230.948972,163.841326 230.086449,162.563609 229.45728,161.103574 C228.825157,159.645021 228.512049,158.063439 228.512049,156.357347 L228.512049,116.052957 L235.932111,116.052957 L235.932111,155.62807 C235.932111,157.477943 236.367803,158.84163 237.240665,159.717652 C238.115003,160.593673 239.206449,161.030943 240.51648,161.030943 C241.825034,161.030943 242.917957,160.593673 243.789342,159.717652 C244.66368,158.84163 245.099372,157.477943 245.099372,155.62807 L245.099372,116.052957 L252.520911,116.052957 L252.520911,156.357347 Z" id="Fill-16" fill="#231F20" mask="url(#mask-2)"></path>
                    <path d="M268.742548,161.030646 L272.163102,161.030646 C274.24704,161.030646 275.726917,160.507405 276.599778,159.460923 C277.47264,158.41444 277.911286,156.772086 277.911286,154.532377 L277.911286,129.487951 C277.911286,127.443901 277.497748,125.86232 276.673625,124.741724 C275.848025,123.622611 274.344517,123.062313 272.163102,123.062313 L268.742548,123.062313 L268.742548,161.030646 Z M261.322486,116.05266 L272.309317,116.05266 C276.527409,116.05266 279.751532,117.234029 281.98464,119.593802 C284.214794,121.95654 285.329871,125.253107 285.329871,129.487951 L285.329871,153.8031 C285.329871,158.670873 284.15424,162.26093 281.801502,164.571788 C279.45024,166.885611 276.065132,168.040299 271.653563,168.040299 L261.322486,168.040299 L261.322486,116.05266 Z" id="Fill-17" fill="#231F20" mask="url(#mask-2)"></path>
                    <polygon id="Fill-18" fill="#231F20" mask="url(#mask-2)" points="294.352246 168.040447 301.772308 168.040447 301.772308 116.052809 294.352246 116.052809"></polygon>
                    <path d="M317.778166,155.774667 C317.778166,157.575624 318.275889,158.902255 319.268382,159.753078 C320.262351,160.605383 321.439458,161.030794 322.796751,161.030794 C324.15552,161.030794 325.331151,160.605383 326.326597,159.753078 C327.319089,158.902255 327.818289,157.575624 327.818289,155.774667 L327.818289,128.320071 C327.818289,126.520596 327.319089,125.192482 326.326597,124.340177 C325.331151,123.490837 324.15552,123.062461 322.796751,123.062461 C321.439458,123.062461 320.262351,123.490837 319.268382,124.340177 C318.275889,125.192482 317.778166,126.520596 317.778166,128.320071 L317.778166,155.774667 Z M310.358105,128.320071 C310.358105,126.227106 310.721428,124.377234 311.448074,122.770454 C312.176197,121.163674 313.131766,119.838525 314.322166,118.792043 C315.509612,117.744078 316.843274,116.954028 318.323151,116.418929 C319.801551,115.88383 321.29472,115.615539 322.796751,115.615539 C324.301735,115.615539 325.791951,115.88383 327.271828,116.418929 C328.751705,116.954028 330.085366,117.744078 331.272812,118.792043 C332.461735,119.838525 333.420258,121.163674 334.146905,122.770454 C334.875028,124.377234 335.239828,126.227106 335.239828,128.320071 L335.239828,155.774667 C335.239828,157.916546 334.875028,159.778277 334.146905,161.359858 C333.420258,162.942922 332.461735,164.256213 331.272812,165.302695 C330.085366,166.35066 328.751705,167.139227 327.271828,167.675809 C325.791951,168.210908 324.301735,168.479199 322.796751,168.479199 C321.29472,168.479199 319.801551,168.210908 318.323151,167.675809 C316.843274,167.139227 315.509612,166.35066 314.322166,165.302695 C313.131766,164.256213 312.176197,162.942922 311.448074,161.359858 C310.721428,159.778277 310.358105,157.916546 310.358105,155.774667 L310.358105,128.320071 Z" id="Fill-19" fill="#231F20" mask="url(#mask-2)"></path>
                    <polygon id="Fill-20" fill="#231F20" mask="url(#mask-2)" points="276.121108 71.7848298 334.811077 71.7848298 334.811077 63.8472766 276.121108 63.8472766"></polygon>
                    <polygon id="Fill-21" fill="#231F20" mask="url(#mask-2)" points="50.8017231 163.644035 150.728862 163.644035 150.728862 155.705 50.8017231 155.705"></polygon>
                    <path d="M365.538757,203.812353 L18.4618338,203.812353 C10.3047877,203.812353 3.69260308,197.17475 3.69260308,188.989658 L3.69260308,19.7085518 C3.69260308,11.5219773 10.3047877,4.88585674 18.4618338,4.88585674 L365.538757,4.88585674 C373.694326,4.88585674 380.307988,11.5219773 380.307988,19.7085518 L380.307988,188.989658 C380.307988,197.17475 373.694326,203.812353 365.538757,203.812353 Z" id="Stroke-22" stroke="#231F20" stroke-width="9.23076923" mask="url(#mask-2)"></path>
                </g>
            </g>
        </g>
    </g>
</svg>